<?xml version="1.0" standalone="no"?>
<!DOCTYPE svg PUBLIC "-//W3C//DTD SVG 20010904//EN"
 "http://www.w3.org/TR/2001/REC-SVG-20010904/DTD/svg10.dtd">
<svg version="1.0" xmlns="http://www.w3.org/2000/svg"
 width="421.000000pt" height="421.000000pt" viewBox="0 0 421.000000 421.000000"
 preserveAspectRatio="xMidYMid meet">
<metadata>
Created by potrace 1.14, written by Peter Selinger 2001-2017
</metadata>
<g transform="translate(0.000000,421.000000) scale(0.100000,-0.100000)"
fill="#000000" stroke="none">
<path d="M2225 3894 c-27 -7 -126 -27 -220 -43 -299 -52 -464 -129 -594 -277
l-41 -47 0 32 c0 18 5 41 11 52 18 35 5 40 -33 14 -48 -32 -85 -109 -99 -207
l-11 -78 -45 0 c-54 0 -105 -21 -127 -51 -23 -33 -20 -39 18 -39 19 0 44 -9
57 -19 l24 -19 -52 -48 c-105 -99 -139 -224 -130 -469 6 -155 20 -251 61 -418
22 -90 22 -102 10 -145 -15 -49 -11 -176 7 -216 6 -14 7 -3 3 33 -5 42 -3 52
7 49 15 -5 24 -28 63 -159 l26 -86 42 -7 c50 -8 258 4 258 15 0 4 17 3 37 -3
21 -6 80 -8 133 -6 110 5 157 24 229 92 31 30 40 34 31 17 -7 -13 -32 -44 -57
-67 l-45 -44 44 0 c39 0 46 4 82 48 52 63 76 123 82 202 7 83 19 115 50 129
55 25 151 7 177 -32 8 -12 16 -53 19 -92 7 -82 31 -142 84 -207 36 -44 43 -48
82 -48 l43 0 -43 42 c-24 24 -35 36 -24 27 59 -47 110 -63 213 -67 58 -2 115
0 133 6 16 6 30 7 30 3 0 -11 216 -22 264 -13 l39 7 32 110 c18 61 36 118 40
127 14 34 27 6 21 -46 -4 -37 -3 -44 3 -24 5 15 12 61 16 102 5 63 3 83 -14
121 -11 25 -25 45 -32 45 -15 0 -8 36 38 191 33 113 36 135 36 249 0 140 -11
212 -55 350 -39 123 -93 228 -162 321 -34 45 -54 80 -51 90 4 11 -2 19 -17 23
-16 4 -42 38 -83 107 -135 227 -273 359 -376 359 -23 0 -32 -6 -40 -27 -13
-34 -55 -80 -90 -99 -43 -22 -51 0 -28 66 34 96 27 103 -76 74z m-482 -968
c137 -37 283 -136 379 -256 58 -72 91 -93 102 -63 8 21 -11 190 -28 246 -18
59 -9 60 70 8 70 -46 131 -104 172 -163 34 -49 102 -180 102 -196 0 -11 -7
-13 -120 -33 -74 -14 -103 -33 -97 -66 3 -17 -2 -23 -22 -28 -48 -10 -94 -44
-88 -65 4 -16 2 -17 -20 -9 -31 12 -135 12 -166 0 -22 -8 -24 -7 -20 9 6 21
-40 55 -88 65 -20 5 -25 11 -22 28 3 14 -3 29 -14 39 -29 25 -196 50 -310 46
l-99 -3 -13 125 c-30 279 -28 299 32 326 39 18 165 13 250 -10z m982 -91 c18
-27 35 -61 38 -75 4 -14 1 -82 -5 -153 -10 -100 -15 -126 -26 -122 -7 3 -19 5
-25 5 -9 0 -13 38 -14 128 -1 70 -8 164 -16 209 -16 95 -8 96 48 8z m-1010
-495 c25 -6 26 -8 7 -9 -13 0 -21 -5 -18 -9 3 -5 -36 -18 -87 -29 -51 -12
-103 -24 -116 -28 -21 -7 -23 -6 -15 16 4 13 7 32 6 41 0 9 7 19 16 21 28 8
175 5 207 -3z m906 1 c-12 -8 -12 -12 -2 -25 12 -14 6 -16 -53 -15 -56 1 -65
3 -55 15 9 11 7 14 -12 15 -21 1 -20 2 6 9 44 11 133 12 116 1z m107 -19 c-1
-9 2 -27 6 -39 8 -26 6 -27 -29 -11 -27 12 -31 28 -15 58 12 22 39 16 38 -8z
m-1253 8 c-3 -5 -16 -10 -28 -9 -21 0 -21 1 -2 9 28 12 37 12 30 0z m1300 0
c3 -5 -1 -10 -9 -10 -9 0 -16 5 -16 10 0 6 4 10 9 10 6 0 13 -4 16 -10z m-318
-6 c-3 -3 -12 -4 -19 -1 -8 3 -5 6 6 6 11 1 17 -2 13 -5z m-248 -80 c26 -10
38 -20 35 -29 -5 -11 -12 -11 -46 1 -52 18 -116 18 -161 -1 -47 -19 -59 -19
-55 3 7 39 153 56 227 26z m-555 -80 c8 -21 -11 -44 -36 -44 -21 0 -33 22 -24
45 7 20 52 19 60 -1z m851 -14 c0 -18 -6 -26 -23 -28 -24 -4 -38 18 -28 44 3
9 15 14 28 12 17 -2 23 -10 23 -28z m-608 -85 c16 -50 -7 -111 -63 -174 -62
-68 -125 -94 -235 -95 -55 -1 -91 4 -101 11 -8 7 -18 10 -21 6 -4 -3 -7 -1 -7
5 0 7 -6 12 -13 12 -20 0 -83 61 -102 99 -9 18 -12 30 -6 27 6 -4 22 15 36 44
14 28 31 50 38 47 6 -2 22 9 35 25 26 30 91 80 78 59 -17 -27 5 -102 41 -142
33 -37 38 -39 92 -38 35 1 48 3 33 7 -31 9 -28 25 6 34 16 4 37 17 47 28 25
27 38 25 33 -5 -7 -37 7 -30 27 12 13 27 16 51 12 92 l-6 56 33 -37 c18 -20
37 -53 43 -73z m496 47 c-10 -103 42 -163 139 -161 29 1 44 3 33 6 -39 9 -37
21 8 41 24 11 48 25 51 31 13 20 28 11 24 -14 -8 -37 8 -20 27 30 10 24 15 56
13 69 l-5 25 28 -19 c15 -11 38 -33 51 -48 13 -15 32 -27 43 -27 25 0 69 -79
61 -110 -9 -35 -71 -94 -123 -117 -58 -26 -164 -30 -236 -9 -67 19 -137 85
-171 159 l-26 60 21 48 c16 40 54 94 65 94 1 0 0 -26 -3 -58z"/>
<path d="M1997 1829 c-15 -9 -47 -58 -47 -74 0 -3 10 -5 23 -5 17 0 28 10 41
36 19 40 11 59 -17 43z"/>
<path d="M2195 1831 c-3 -5 2 -26 12 -45 12 -26 23 -36 40 -36 27 0 28 2 8 40
-17 33 -50 56 -60 41z"/>
<path d="M1086 1790 c6 -36 11 -46 18 -39 2 2 -3 20 -10 39 l-14 35 6 -35z"/>
<path d="M3117 1770 c-3 -11 -1 -20 4 -20 5 0 9 9 9 20 0 11 -2 20 -4 20 -2 0
-6 -9 -9 -20z"/>
<path d="M920 1330 c0 -13 5 -120 11 -239 l11 -216 -58 -60 c-74 -77 -122
-178 -168 -355 -20 -74 -36 -141 -36 -147 0 -9 19 -13 60 -13 33 0 60 3 60 8
0 32 43 306 54 343 24 79 67 152 81 137 3 -2 9 -101 15 -219 6 -118 16 -227
22 -242 6 -16 22 -33 35 -38 32 -12 2164 -12 2196 0 13 5 29 22 35 38 10 26
22 210 27 395 1 43 4 81 8 85 15 14 70 -79 93 -156 10 -36 54 -311 54 -342 0
-4 27 -9 60 -11 70 -4 68 -9 40 112 -53 219 -98 317 -188 409 -34 35 -65 62
-68 59 -2 -3 -9 -43 -14 -89 -6 -46 -12 -95 -14 -109 -3 -14 -10 -68 -16 -120
-12 -105 -28 -170 -42 -170 -5 0 -6 -5 -3 -10 9 -14 -29 -12 -43 2 -10 10 -17
10 -34 -1 -18 -11 -20 -11 -15 3 4 10 1 13 -8 9 -8 -3 -12 -10 -9 -15 4 -6 -2
-8 -12 -6 -11 2 -18 9 -17 16 2 7 -4 9 -14 5 -11 -5 -14 -3 -9 6 5 7 17 10 29
7 14 -3 17 -2 9 6 -11 11 -92 18 -92 8 0 -3 -7 -15 -16 -26 -15 -18 -15 -18
-4 3 9 19 8 22 -7 16 -13 -5 -15 -3 -9 13 6 15 4 16 -5 7 -9 -9 -16 -7 -30 10
-11 13 -18 17 -19 9 0 -7 -5 -10 -12 -6 -6 4 -8 3 -5 -3 4 -6 0 -13 -8 -17
-17 -6 -29 9 -20 27 4 6 1 5 -7 -3 -7 -8 -20 -16 -28 -18 -12 -3 -13 -1 -2 9
16 17 16 34 -1 20 -8 -6 -18 -7 -22 -3 -5 4 -5 1 -1 -6 4 -6 2 -12 -3 -12 -6
0 -11 9 -11 21 0 11 -4 17 -10 14 -6 -3 -10 -1 -10 4 0 6 -7 11 -16 11 -8 0
-12 -4 -9 -10 3 -5 0 -10 -9 -10 -8 0 -17 5 -19 10 -3 6 -4 5 -3 -2 1 -7 13
-15 27 -19 21 -6 21 -7 -9 -8 -17 -1 -31 2 -31 7 1 4 1 18 0 32 -2 25 -2 25
-11 2 -5 -12 -12 -22 -15 -22 -4 0 -3 5 0 10 3 6 1 11 -4 11 -6 1 -15 3 -21 4
-5 1 -22 3 -36 4 -14 0 -22 5 -19 11 3 5 1 10 -6 10 -6 0 -18 8 -25 18 -13 16
-14 16 -7 -2 5 -15 3 -18 -9 -13 -12 4 -15 0 -11 -16 3 -13 1 -18 -4 -12 -8
10 -25 16 -55 18 -9 1 -14 5 -12 9 3 5 10 5 16 2 7 -4 8 -2 4 5 -4 6 -12 9
-17 6 -5 -4 -9 -1 -9 4 0 6 -5 11 -11 11 -6 0 -9 -7 -5 -15 3 -9 0 -15 -10
-15 -8 0 -12 4 -9 10 4 7 -3 7 -19 0 -30 -11 -32 -8 -10 15 20 20 15 26 -15
18 -17 -4 -19 -8 -9 -14 9 -6 7 -9 -9 -9 -22 0 -26 7 -24 40 0 8 -2 10 -5 4
-3 -7 -13 -11 -22 -9 -9 1 -12 0 -6 -2 7 -2 14 -13 17 -24 5 -18 4 -18 -24 -2
-16 10 -29 23 -29 30 0 7 -5 13 -11 13 -5 0 -8 -4 -5 -8 3 -5 -1 -9 -9 -9 -8
0 -12 4 -10 8 3 3 -4 9 -16 12 -12 3 -22 0 -26 -8 -8 -21 -31 5 -26 30 2 11
-3 5 -10 -14 -12 -30 -15 -32 -28 -18 -11 10 -20 12 -32 5 -13 -7 -17 -5 -17
7 0 9 5 13 10 10 6 -3 10 3 10 14 0 20 -1 20 -18 4 -11 -10 -17 -21 -15 -25 2
-5 0 -8 -5 -8 -6 0 -13 7 -16 16 -4 11 -10 13 -23 6 -12 -8 -26 -4 -52 14 -20
13 -40 24 -46 24 -5 0 -3 -5 5 -10 13 -8 12 -10 -2 -10 -10 0 -18 5 -18 11 0
7 -9 9 -21 6 -16 -4 -19 -2 -15 10 5 13 4 14 -9 3 -10 -8 -15 -9 -15 -1 0 6
-5 11 -11 11 -5 0 -8 -4 -4 -9 3 -5 0 -13 -6 -17 -7 -4 -9 -3 -6 2 3 6 2 16
-2 23 -7 11 -13 9 -30 -8 l-21 -21 0 26 c0 22 -2 25 -15 14 -12 -10 -15 -10
-16 1 0 8 -4 5 -9 -6 -8 -19 -9 -19 -9 -1 -1 17 -2 17 -27 1 -25 -16 -26 -16
-20 2 3 10 1 25 -4 33 -8 13 -10 12 -10 -2 0 -10 -7 -18 -15 -18 -8 0 -15 6
-15 14 0 8 -7 16 -15 20 -8 3 -14 2 -14 -2 3 -18 -2 -35 -8 -29 -3 4 -12 2
-18 -3 -9 -8 -11 -4 -8 13 5 24 -21 56 -31 38 -3 -5 -15 -7 -25 -4 -10 3 -22
0 -25 -6 -11 -17 -26 -13 -20 4 5 11 -1 15 -22 15 -23 0 -26 2 -14 10 13 8 12
10 -2 10 -10 0 -18 -6 -18 -14 0 -8 -7 -17 -16 -20 -10 -4 -13 -2 -8 6 5 8 2
9 -10 5 -14 -6 -15 -3 -6 13 9 17 8 20 -10 20 -11 0 -20 -4 -20 -10 0 -5 -4
-10 -10 -10 -5 0 -10 9 -10 20 0 17 -3 19 -19 10 -13 -6 -18 -18 -16 -30 2
-12 0 -18 -6 -15 -5 4 -7 11 -4 16 4 5 2 9 -4 9 -6 0 -20 10 -32 22 -12 13
-19 17 -15 11 4 -7 4 -18 0 -24 -4 -7 -11 -2 -18 12 -15 31 -36 36 -30 7 l5
-23 -11 24 c-9 20 -12 22 -27 10 -10 -9 -14 -9 -10 -2 6 9 -5 11 -40 8 -26 -2
-40 -2 -30 1 9 3 17 10 17 15 0 6 -4 8 -9 5 -13 -8 -43 42 -46 78 -1 17 -5 47
-9 66 -3 19 -15 109 -27 200 -20 156 -29 202 -29 150z m147 -551 c2 -16 -1
-18 -11 -10 -7 6 -15 10 -17 8 -2 -1 2 4 10 11 8 6 15 12 16 12 0 0 1 -9 2
-21z m83 -19 c0 -5 -2 -10 -4 -10 -3 0 -8 5 -11 10 -3 6 -1 10 4 10 6 0 11 -4
11 -10z m366 -45 c1 -8 -2 -17 -7 -21 -5 -3 -8 6 -7 20 2 26 10 26 14 1z m668
-150 c3 -8 1 -15 -3 -15 -5 0 -11 7 -15 15 -3 8 -1 15 3 15 5 0 11 -7 15 -15z
m706 -135 c0 -5 -2 -10 -4 -10 -3 0 -8 5 -11 10 -3 6 -1 10 4 10 6 0 11 -4 11
-10z m101 -43 c-10 -9 -11 -8 -5 6 3 10 9 15 12 12 3 -3 0 -11 -7 -18z"/>
<path d="M1217 789 c7 -7 15 -10 18 -7 3 3 -2 9 -12 12 -14 6 -15 5 -6 -5z"/>
<path d="M1448 753 c7 -3 16 -2 19 1 4 3 -2 6 -13 5 -11 0 -14 -3 -6 -6z"/>
<path d="M1966 628 c3 -4 9 -8 15 -8 5 0 9 4 9 8 0 5 -7 9 -15 9 -8 0 -12 -4
-9 -9z"/>
<path d="M2011 631 c-8 -5 -9 -11 -3 -15 5 -3 12 1 16 9 6 17 6 18 -13 6z"/>
</g>
</svg>
